<svg enable-background="new 0 0 469 183" height="183" viewBox="0 0 469 183" width="469" xmlns="http://www.w3.org/2000/svg"><g fill="#fff"><path d="m468 178v-3c0-2.2-1.801-4-4-4h-3c-2.2 0-4 1.8-4 4v3c0 2.156 1.78 4 4 4h3c2.172 0 4-1.844 4-4zm-2 1c0 .55-.45 1-1 1h-5c-.551 0-1-.45-1-1v-5c0-.55.449-1 1-1h5c.55 0 1 .45 1 1zm-1-1h-5l2.5-3.333z"/><path d="m440 171c-1 0-3 0-3 0-2.22 0-4 1.844-4 4v3c0 2.2 1.8 4 4 4h3c2.199 0 4-1.8 4-4v-3c0-2.156-1.828-4-4-4zm2 8c0 .55-.45 1-1 1h-5c-.551 0-1-.45-1-1v-5c0-.55.449-1 1-1h5c.55 0 1 .45 1 1zm-3.5-.667-2.5-3.333h5z"/><path d="m408 175v3c0 2.219 1.844 4 4 4h3c2.2 0 4-1.8 4-4v-3c0-2.2-1.8-4-4-4h-3c-2.156 0-4 1.828-4 4zm8-2c.55 0 1 .45 1 1v5c0 .55-.45 1-1 1h-5c-.55 0-1-.45-1-1v-5c0-.55.45-1 1-1zm-.667 3.5-3.333 2.5v-5z"/><path d="m391 171h-3c-2.2 0-4 1.8-4 4v3c0 2.2 1.8 4 4 4h3c2.155 0 4-1.781 4-4 0 0 0-2 0-3 0-2.172-1.844-4-4-4zm1 2c.55 0 1 .45 1 1v5c0 .55-.45 1-1 1h-5c-.55 0-1-.45-1-1v-5c0-.55.45-1 1-1z"/><path d="m360.024 179h1.976v-9h2v9h1.976l-2.976 3zm8.976 0h-2v2h2zm1-3h-3v2h3zm2-6h-5v2h5zm-1 3h-4v2h4z"/><path d="m336.024 179h1.976v-9h2v9h1.976l-2.976 3zm8.976-9h-2v2h2zm1 3h-3v2h3zm2 6h-5v2h5zm-1-3h-4v2h4z"/><path d="m312.024 179h1.976v-9h2v9h1.976l-2.976 3zm7.976-9v4h2v1h1v-5zm2.008 3h-1v-2h1zm-1.008 9h1v-5h-2v1h1z"/><path d="m288.024 179h1.976v-9h2v9h1.976l-2.976 3zm7.976-2v4h2v1h1v-5zm2.008 3h-1v-2h1zm-1.008-5h1v-5h-2v1h1z"/><path d="m264.024 179h1.976v-9h2v9h1.976l-2.976 3zm6.976-2v5h1v-1h1v1h1v-5zm2.008 3h-1v-2h1zm-2.008-10v1h2v1h1v-2zm0 5h3v-1h-2v-1h-1zm1.008-2h1v-1h-1z"/><path d="m240.024 179h1.976v-9h2v9h1.976l-2.976 3zm6.976-9v5h1v-1h1v1h1v-5zm2.008 3h-1v-2h1zm-2.008 4v1h2v1h1v-2zm0 5h3v-1h-2v-1h-1zm1.008-2h1v-1h-1z"/><path d="m216.024 179h1.976v-9h2v9h1.976l-2.976 3zm6-6h1.976v9h2v-9h1.976l-2.976-3z"/><path d="m200.655 179c-.073.042-.523.3-1.357.3-.672 0-1.422-.347-2.058-.332-.218.005-1.021.095-1.542.255.544-.5.812-.873.995-1.127.273-.386.446-1.424.336-2.096h1.971v-1h-2.415c-.376-.65-.854-1.424-.854-2.042 0-.377.138-.716.409-1.005.273-.291.926-.5 1.406-.5.63 0 1.844.422 1.844 1.547h1.531c0-1.609-1.609-2.971-3.315-2.971-1.099 0-1.982.298-2.629.882-1.273 1.151-.955 2.515-.759 3.047.116.313.255.661.442 1.042h-1.66v1h2.208c.472.951.404 1.955-.239 2.688-.37.422-.562.517-.922.75l.551 1.455s.839-.455 1.724-.526c.886-.072 2.24.618 2.828.618.588-.002 1.138.02 2.013-.518z"/><path d="m178.327 177.854c0-2.186-1.766-2.744-2.685-2.93 0 0-.269-.043-.643-.138v-3.067c1.062.188 1.266.752 1.363 1.6h1.59c-.098-2.31-1.86-2.881-2.953-3.014v-.789h-1v.779c-1.497.143-2.974 1.092-2.974 3.014 0 1.893 1.395 2.465 2.7 2.854.087.025.174.051.272.079v3.346c-.984-.202-1.59-.878-1.658-1.909h-1.389c.027.957.095 1.741.679 2.331.578.583 1.41.933 2.368 1.034v.786h1v-.771c2.061-.152 3.33-1.342 3.33-3.205zm-5.671-4.743c0-1.064.672-1.307 1.345-1.395v2.741c-.657-.176-1.345-.279-1.345-1.346zm2.344 6.524v-3.109c.937.291 1.699.673 1.699 1.598 0 1.167-1.053 1.446-1.699 1.511z"/><path d="m151.529 180.141c-.612 0-2.198-.543-2.527-3.141h2.998l1-1h-4.062c0-.365.024-.693.062-1h3l1-1h-3.793c.541-1.748 1.758-2.156 2.313-2.156.716 0 2.308.594 2.308 2.156h1.81c-.036-.701-.255-1.396-.661-2.093-.748-1.259-1.924-1.888-3.532-1.888-1.206 0-2.197.471-2.976 1.407-.354.425-.844 1.308-1.124 2.572h-1.345l-1 1h2.182c-.033.317-.056.647-.057 1h-1.125l-1 1h2.173c.172 1.794.781 2.899 1.134 3.37.788 1.052 1.87 1.576 3.246 1.576 1.113 0 2.025-.389 2.736-1.168.661-.723 1.081-1.654 1.277-2.778h-1.737c-.001 1.518-1.599 2.143-2.3 2.143z"/><path d="m131.853 172.975-2.829-2.828c-.194-.194-.512-.194-.707 0-.194.195-.194.513 0 .707l.354.354-2.671 2.792h-3l2.101 2.122-2.075 2.075-3.026 3.803 3.803-3.025 2.075-2.074 2.122 2.099v-3l2.792-2.671.354.354c.195.193.513.194.708 0 .195-.197.194-.513-.001-.708z"/><path d="m99 172h6v7h-6z" opacity=".3"/><path d="m102.031 170c-2.391 0-4.03.919-4.03 1.469v9.531c0 .55.45 1 1 1h6c.55 0 1-.45 1-1v-9.531c-.001-.55-1.579-1.469-3.97-1.469zm-.031 11.536c-.573 0-1.037-.464-1.037-1.036 0-.574.464-1.038 1.037-1.038.572 0 1.037.464 1.037 1.038 0 .572-.464 1.036-1.037 1.036zm3-2.536h-6v-7h6z"/><path d="m76.232 182.139c-.601 0-1.166-.232-1.591-.658l-1.415-1.414c-.425-.426-.659-.989-.659-1.592 0-.601.234-1.166.659-1.591l.551-.551c.192.362.445.703.756 1.013l.177.178-.953.951 2.475 2.477 3.89-3.891-2.122-2.122 1.05-1.051c.063.051.127.106.187.166l1.414 1.414c.877.877.877 2.305 0 3.182l-2.829 2.83c-.424.424-.989.659-1.59.659zm.531-4.196-1.414-1.414c-.425-.424-.659-.989-.659-1.59 0-.602.234-1.166.659-1.592l2.828-2.828c.425-.426.99-.658 1.591-.658.602 0 1.166.232 1.591.658l1.415 1.414c.426.426.659.989.659 1.592 0 .601-.48 1.412-.907 1.838l-.283.283c-.21-.353-.471-.685-.776-.99l-.177-.178.955-.953-2.476-2.476-3.889 3.89 2.12 2.121-1.055 1.056c-.056-.052-.124-.113-.182-.173z"/><path d="m54.495 172.512c-1.859-2.848-5.5-.98-5.5 1.646 0 2.022 3.165 3.768 5.5 6.96 2.334-3.192 5.499-4.938 5.499-6.96 0-2.629-3.524-4.494-5.499-1.646zm2.083 4.394c-.669.654-1.371 1.369-2.083 2.189-.713-.82-1.373-1.52-2.042-2.175-1.125-1.103-2.158-2.06-2.158-2.767 0-1.055.916-1.871 1.79-1.871.55 0 1.021.297 1.404.883l.976 1.492 1.016-1.465c.414-.596.923-.91 1.476-.91.868 0 1.737.8 1.737 1.871-.001.71-.991 1.652-2.116 2.753z"/><path d="m29.175 180.691-.073-.07 2.537-2.557 2.515-2.496c.61-.608.932-1.236.982-1.918.099-1.309-.785-2.469-2.055-2.698-.165-.03-.322-.041-.475-.041-1.152 0-1.963.815-2.746 1.604l-3.476 3.477c-.132.133-.282.271-.438.415-.754.694-1.463 1.349-1.32 2.331.128.884.863 1.279 1.536 1.279.469 0 .924-.187 1.249-.512l5.477-5.479c.224-.225.297-.504.197-.746-.091-.221-.3-.362-.532-.362-.175 0-.349.081-.502.233-.137.119-.262.25-.387.382l-3.769 3.731-.692-.674.069-.072s3.504-3.572 3.887-3.953c.42-.42.811-.681 1.463-.681.092 0 .188.005.292.017.579.107 1.004.486 1.174 1.039.195.629.019 1.338-.448 1.804l-3.931 3.933c-.188.188-.379.396-.576.612-.623.68-1.071 1.17-1.766 1.507-.367.18-.781.273-1.197.273-.929 0-1.761-.451-2.227-1.211-.637-1.043-.442-2.455.461-3.358l5.115-5.115c.396-.397.708-.712 1.113-.956.591-.359 1.273-.549 1.974-.549.526 0 1.053.113 1.521.327 1.044.479 1.761 1.416 1.967 2.569.223 1.244-.172 2.517-1.058 3.4l-5.169 5.113c.001.003-.658-.564-.692-.598z"/><path d="m2.668 178c.683 1.134 1.914 1.9 3.332 1.9s2.647-.768 3.332-1.9z" opacity=".3"/><path d="m7.547 172.952c-.301 0-.547.246-.547.547 0 .104.038.196.089.28-.003.004-.009.005-.012.01l-1.218 1.263c-.41.066-.725.425-.725.855 0 .479.39.872.872.872.479 0 .87-.393.87-.872 0-.189-.062-.365-.166-.509l.548-1.446c.085.055.18.094.288.094.301 0 .547-.246.547-.547.001-.302-.245-.547-.546-.547z"/><circle cx="8.547" cy="175.452" r=".547"/><circle cx="4.547" cy="173.499" r=".547"/><circle cx="3.454" cy="175.452" r=".547"/><path d="m6 170.229c-3.188 0-5.771 2.584-5.771 5.771s2.583 5.77 5.771 5.77c3.187 0 5.771-2.584 5.771-5.771s-2.583-5.77-5.771-5.77zm0 10.042c-2.355 0-4.271-1.916-4.271-4.271s1.916-4.271 4.271-4.271c2.354 0 4.271 1.916 4.271 4.271s-1.916 4.271-4.271 4.271z"/><path d="m457.291 148.708-1.291 1.292v-4h4l-1.293 1.292 2 2-1.415 1.416zm3.416 6-1.415-1.416-2 2-1.292-1.292v4h4l-1.293-1.292zm4-1.416-1.415 1.416 2 2-1.292 1.292h4v-4l-1.293 1.292zm-.707-7.292 1.291 1.292-2 2 1.416 1.416 2-2 1.293 1.292v-4z"/><path d="m437 152h2v1h-2z" opacity=".5"/><path d="m432 153h12v1h-12z" opacity=".3"/><path d="m437 154h-5v2c0 .55.449 1 1 1h10c.55 0 1-.45 1-1v-2h-5z"/><path d="m443 148h-3v-1c0-.551-.448-1-1-1h-2c-.553 0-1 .449-1 1v1h-3c-.551 0-1 .45-1 1v4h5v-1h2v1h5v-4c0-.55-.45-1-1-1zm-6-1h2v1h-2z"/><path d="m413 153v5l2-2v-3l3.5-5h-9z"/><path d="m409 146h10v1h-10z"/><path d="m396 152c0-.553-.447-1-1-1h-10c-.554 0-1 .447-1 1v1c0 .553.446 1 1 1h10c.553 0 1-.447 1-1zm-1 1h-10v-1h10zm1 3c0-.553-.447-1-1-1h-10c-.554 0-1 .447-1 1v1c0 .553.446 1 1 1h10c.553 0 1-.447 1-1zm-1 1h-10v-1h10zm1-9c0-.553-.447-1-1-1h-10c-.554 0-1 .447-1 1v1c0 .553.446 1 1 1h10c.553 0 1-.447 1-1zm-1 1h-10v-1h10z"/><path d="m385 148h8v1h-8z" opacity=".5"/><path d="m385 152h5v1h-5z" opacity=".5"/><path d="m385 156h7v1h-7z" opacity=".5"/><path d="m371.989 148.955-2.513 1.268-1.447-2.32 2.59-1.383c-1.006-.717-2.083-.64-3.062-.088-1.284.723-1.85 2.219-1.41 3.562l-5.994 5.991c-.2.203-.2.535 0 .736l1.104 1.104c.202.202.534.202.736 0l5.959-5.96c.798.283 1.718.224 2.528-.233.979-.551 1.599-1.443 1.509-2.677z"/><path d="m342.473 149.163c-.057-.386-.343-.708-.347-1.104-.245.123-.332.525-.623.233-.074.181-.27.342-.321.554.345.228.894.239 1.291.317-.018-.12-.07-.015 0 0z"/><path d="m342 146.24c-3.141 0-5.761 2.619-5.761 5.76s2.62 5.76 5.761 5.76c3.14 0 5.76-2.619 5.76-5.76s-2.62-5.76-5.76-5.76zm3.148 9.645c-.562.549-1.393 1.135-2.208 1.115-.121-.203.018-.289.018-.468-.409-.087-.665-.466-.867-.798-.066-.418.507-.772.354-1.121-.67.076-1.116-.579-1.706-.811-.358-.139-.729-.248-1.072-.426-.229-.118-.391-.352-.664-.336.018-.443-.344-.809-.328-1.042.125-.595-.294-1.155-.136-1.796.145-.59.521-1.092.576-1.708.023-.146-.199-.197-.153-.406.05-.226.664-.544.857-.604.327-.104.586.045.915-.021.534-.107 1.095-.128 1.541-.479.115.024.251.025.367.002.438.365 1.516.23 1.369 1.055 0 0-.387.216-1.088-.075.115.048.014.331-.014.441.574.327 1.318.573 1.612 1.223-.249.308-.56.17-.891.17-.104.115-.149.214-.104.364-.616.261-.478.579-.675 1.107-.123.33-.439.354-.368.758.057.359-.101.631-.149.97 0 0-.546-.304-.804-.729-.13-.215-.558-.146-.796-.193-.517.199-.133 1.287.284.841.523-.558.6.146.566.489.167.101.409.025.514.242.018.103-.043.41.031.51.145.221.555-.047.663-.119.457-.309 1.119-.229 1.64-.246.308.203.685.172 1.003.34.27.141.478-.008.732.162-.07.667-.56 1.147-1.019 1.589z"/><path d="m318 146.219c-3.191 0-5.781 2.588-5.781 5.781s2.59 5.781 5.781 5.781c3.192 0 5.78-2.588 5.78-5.781s-2.587-5.781-5.78-5.781zm1.012 2.765v3h1.973l-2.985 4.016-2.938-4.016 1.938.016v-3z"/><path d="m294 157.781c3.19 0 5.78-2.588 5.78-5.781s-2.59-5.781-5.78-5.781c-3.193 0-5.781 2.588-5.781 5.781s2.588 5.781 5.781 5.781zm-1.012-2.765v-3h-1.973l2.985-4.016 2.938 4.016-1.938-.016v3z"/><path d="m270 146.219c-3.193 0-5.781 2.588-5.781 5.781 0 3.191 2.588 5.781 5.781 5.781 3.192 0 5.78-2.59 5.78-5.781.001-3.193-2.587-5.781-5.78-5.781zm3 6.781h-3l.016 1.938-4.016-2.938 4.016-2.984v1.974h3z"/><path d="m240.219 152c0 3.191 2.588 5.781 5.781 5.781 3.192 0 5.78-2.59 5.78-5.781 0-3.193-2.588-5.781-5.78-5.781-3.193 0-5.781 2.588-5.781 5.781zm2.765-1.012h3v-1.973l4.016 2.985-4.017 2.938.017-1.938h-3z"/><path d="m219 145h6v2h-6z"/><path d="m221.608 154.242c-.216.061-.607.258-.607.482v-1.537l4-1.656v1.402z" opacity=".3"/><path d="m219 147h6v1h-6z" opacity=".5"/><path d="m225.391 153.63-3.391 1.308v1.062c0 1.07-.5 1.938-1.5 1.938s-1.484-.852-1.484-1.922c0-.94.004-2.015.008-3.02l-1.211.848c-.199.153-.48.15-.66-.027l-1.12-1.098c-.151-.152-.157-.339-.062-.531l2.299-3.623s.342-.563.732-.563h5.252c.189 0 1.748 1.649 1.748 1.729v3.418c-.002.222-.395.419-.611.481zm-1.282-4.63h-5.025l-2.364 3.391.828.859 1.835-1.463c.151-.116.294-.137.464-.051.172.084.154.259.154.449v.002 4.562s1 .453 1 0 0-2.024 0-2.024c0-.226.393-.422.607-.482l3.393-1.309v-2.934z"/><path d="m196 156h6v2h-6z"/><path d="m198.608 148.758c-.216-.061-.607-.258-.607-.482v1.537l4 1.656v-1.402z" opacity=".3"/><path d="m196 155h6v1h-6z" opacity=".5"/><path d="m203 149.854v3.418c0 .078-1.559 1.729-1.748 1.729 0 0-4.861 0-5.252 0-.392 0-.732-.563-.732-.563l-2.299-3.623c-.095-.192-.089-.379.062-.531l1.121-1.098c.18-.179.461-.182.66-.027l1.211.848c-.004-1.005-.008-2.078-.008-3.02 0-1.07.484-1.922 1.484-1.922s1.501.865 1.501 1.935v1.062l3.391 1.308c.216.062.609.259.609.484zm-1 3.146v-2.936l-3.393-1.308c-.216-.062-.607-.258-.607-.481 0 0 0-1.572 0-2.025s-1-.469-1 0 0 4.562 0 4.562v.002c0 .189.018.365-.154.449-.17.084-.312.064-.464-.052l-1.835-1.463-.828.858 2.364 3.392h5.025z"/><path d="m178 150h2v6h-2z"/><path d="m170.696 152.607c-.062-.215-.258-.607-.481-.607h1.537l1.656 4h-1.403z" opacity=".3"/><path d="m177 150h1v6h-1z" opacity=".5"/><path d="m171.308 156.391-1.308-3.391h-1.062c-1.069 0-1.938-.5-1.938-1.5s.852-1.484 1.922-1.484c.94 0 2.015.004 3.02.008l-.848-1.211c-.153-.199-.15-.48.028-.66l1.097-1.12c.152-.151.339-.157.531-.062l3.654 2.299s.596.342.596.731 0 5.252 0 5.252c0 .19-1.713 1.748-1.792 1.748h-3.418c-.224-.001-.421-.394-.482-.61zm4.692-1.282v-5.026l-3.422-2.364-.875.828 1.455 1.835c.116.151.132.294.047.464-.084.172-.264.154-.454.154h-.001s-3.75 0-4.75 0v1h2.213c.224 0 .421.393.481.607l1.308 3.393h2.935z"/><path d="m144 150h2v6h-2z"/><path d="m153.242 152.607c.062-.215.258-.607.481-.607h-1.537l-1.656 4h1.403z" opacity=".3"/><path d="m146 150h1v6h-1z" opacity=".5"/><path d="m152.147 157h-3.418c-.078 0-1.729-1.559-1.729-1.748 0 0 0-4.861 0-5.252s.562-.732.562-.732l3.624-2.299c.192-.095.379-.089.531.062l1.097 1.121c.179.179.183.461.028.66l-.848 1.211c1.005-.004 2.079-.008 3.02-.008 1.07 0 1.922.483 1.922 1.483s-.866 1.502-1.936 1.502h-1.062l-1.308 3.391c-.062.216-.258.609-.483.609zm-3.147-1h2.935l1.308-3.393c.062-.215.258-.607.481-.607h2.026s.469-1 0-1c-.47 0-4.562 0-4.562 0h-.001c-.19 0-.365.018-.45-.154-.085-.17-.064-.312.052-.464l1.462-1.835-.859-.828-3.392 2.364v5.026z"/><path d="m131 151.75v1.25h-1l-3.5-5h2z" opacity=".3"/><path d="m127 157h-.5l-1-2.125-1.5-2.125v-3.75h1l1.356-1h2.144l2.5 3.75v1.25h-4.5l.5 2.25zm0 1c.552 0 1-.697 1-1.25v-1.5c0-.066-.28-1.25-.28-1.25h3.28c.552 0 1-.697 1-1.25v-1c0-.266-.105-.551-.293-.738l-2.375-3.441c-.187-.277-.498-.569-.832-.569h-2.5c-.155 0-1.394 1-1.394 1h-.606c-.553 0-1 .197-1 .75v4c0 .217.069.458.2.631l1.445 1.959.959 1.981c.169.34.517.679.896.679zm-5-10h-2v6h2z"/><path d="m122 148h1v6h-1z" opacity=".5"/><path d="m107 152.25v-1.25h-1l-3.5 5h2z" opacity=".3"/><path d="m103 147v1.75l-.5 2.25h4.5v1.25l-2.5 3.75h-2.144l-1.356-1h-1v-3.75l1.5-2.125 1-2.125zm0-1h-.5c-.379 0-.726.339-.896.678l-.959 1.982-1.445 1.959c-.131.173-.2.414-.2.631v4c0 .553.447.75 1 .75h.606s1.238 1 1.394 1h2.5c.334 0 .646-.292.832-.57l2.375-3.441c.188-.188.293-.473.293-.737v-1c0-.554-.448-1.25-1-1.25h-3.28s.28-1.185.28-1.25v-1.5c0-.555-.448-1.252-1-1.252zm-5 4h-2v6h2z"/><path d="m98 150h1v6h-1z" opacity=".5"/><path d="m78 148 1.553-1.796.447 2.332 2.243-.778-.779 2.242 2.331.447-1.795 1.553 1.795 1.553-2.331.447.779 2.242-2.243-.778-.447 2.332-1.553-1.796-1.553 1.796-.447-2.332-2.243.778.779-2.242-2.331-.447 1.795-1.553-1.795-1.553 2.331-.447-.779-2.242 2.243.778.447-2.332z"/><path d="m58.792 154h-.176l-1.174-1.73-.626-3.27h-.006c-.19-1-1.069-1.967-2.2-2.23.002-.006.181-.373.181-.373.082-.26-.062-.396-.321-.396h-.938c-.258 0-.401.192-.32.453 0 0 .178.315.18.321-1.129.264-2.009 1.226-2.2 2.226h-.006l-.626 3.269-1.175 1.73h-.176c-.258 0-.47.225-.47.497 0 .274.197.581.438.679 0 0 2.007.819 4.823.819 2.815 0 4.823-.82 4.823-.82.24-.098.438-.401.438-.677s-.212-.498-.469-.498zm-4.792 2.96c.358 0 .7-.021 1.023-.062-.155.643-.553 1.102-1.023 1.102-.471 0-.869-.459-1.025-1.104.325.042.666.064 1.025.064z"/><path d="m23 151.5v.5c0 .553 1 1 1 1v-2.5s-1 .447-1 1z"/><path d="m35.5 147c-.275 0-.5.225-.5.5v8.5c0 .275.225.5.5.5.274 0 .5-.225.5-.5v-8.5c0-.275-.225-.5-.5-.5z"/><path d="m25.25 150c-.275 0-.25.225-.25.5v2.5c0 .143.555 3.508.555 3.508.05.271.253.492.528.492h.834c.274 0 .465.027.423-.244l-.467-2.756h.377l6.75 2v-8.5l-6.75 2.5z"/><path d="m11.69 154-1.717-7.324c-.06-.269-.334-.676-.61-.676h-6.727c-.275 0-.549.346-.61.613l-1.715 7.387z"/><path d="m11 155h-10c-.553 0-1 .447-1 1v1c0 .553.447 1 1 1h10c.552 0 1-.447 1-1v-1c0-.553-.448-1-1-1zm-2 2h-1v-1h1zm2 0h-1v-1h1z"/><path d="m10 156h1v1h-1z" opacity=".3"/><path d="m468 128-3-2.977v1.977h-6v-1.977l-3 2.977 3 2.977v-1.977h6v1.977z"/><path d="m438 134 2.976-3h-1.976v-6h1.976l-2.976-3-2.976 3h1.976v6h-1.976z"/><path d="m411 127-3 7h12l3-7z"/><path d="m420 126v-2h-5c0-.55-.45-1-1-1h-3c-.55 0-1 .45-1 1h-2v6l2-4z"/><path d="m384 126h12v8h-12z"/><path d="m391 124c0-.55-.45-1-1-1h-3c-.55 0-1 .45-1 1h-2v1h12v-1z"/><path d="m371.438 122h-.938c-.231 0-.435.159-.486.385l-.383 1.615h-8.964c-.151 0-.295.068-.392.188-.095.119-.131.273-.098.422l1 4.75c.051.229.337.642.821.642h6.328l-.475 2h-5.351c-.275 0-.5.226-.5.5s.225.5.5.5h.5v.5c0 .274.225.5.5.5.274 0 .5-.226.5-.5v-.502h3v.5c0 .275.225.5.5.5.274 0 .5-.225.5-.5v-.5h.312c.406 0 .578-.391.578-.391l2.005-9.609h.542c.276 0 .5-.225.5-.5s-.223-.5-.499-.5z"/><path d="m350 130-2.992 2.829-2.993-2.829h1.985v-4h-3.808l-2.153-2h7.961v6zm-14-3v6h8l-2.154-2h-3.846v-4h2.023l-2.993-2.829-2.991 2.829z"/><path d="m314.965 124.046 3.527 3.527 3.529-3.527 1.979 1.979-5.5 5.515-.005-.004-.008.006-5.502-5.517z"/><path d="m297.021 131.875-3.528-3.527-3.528 3.527-1.98-1.98 5.5-5.514.005.004.008-.006 5.502 5.516z"/><path d="m272 126v2.5s.153 2.73-2 2.73c-2.154 0-2-1.315-2-2.73v-2.5h-3v2c0 1.57.333 6 5 6s5-4.43 5-6v-2z"/><path d="m268 125h-3v-3h3zm7-3h-3v3h3z" opacity=".5"/><path d="m251 123h-10c-.55 0-1 .45-1 1v6c0 .55.45 1 1 1h1v3l3.037-3h5.963c.55 0 1-.45 1-1v-6c0-.55-.45-1-1-1z"/><path d="m218.586 126h-2.586v-2h3.414l1.809 1.809-1.414 1.414zm8.414 0v1.977l3-3-3-2.951v1.974h-2.414l-6 6h-2.586v2h3.414l6-6zm0 4h-1.586l-1.224-1.223-1.414 1.414 1.81 1.809h2.414v1.977l3-3-3-2.951z"/><path d="m203 123.5v1.5h-11v-1.5c0-.275.225-.5.5-.5h1.5v-1h1v1h5v-1h1v1h1.5c.275 0 .5.225.5.5zm-11 2.5h11v7.5c0 .275-.226.5-.5.5h-10c-.275 0-.5-.225-.5-.5zm9 3h1v-1h-1zm0 2h1v-1h-1zm0 2h1v-1h-1zm-2-4h1v-1h-1zm0 2h1v-1h-1zm0 2h1v-1h-1zm-2-4h1v-1h-1zm0 2h1v-1h-1zm0 2h1v-1h-1zm-2-4h1v-1h-1zm0 2h1v-1h-1zm0 2h1v-1h-1zm-2-4h1v-1h-1zm0 2h1v-1h-1zm0 2h1v-1h-1z"/><path d="m179.627 130.139-3.627-3.244v-3.395c0-.828-.671-1.5-1.5-1.5s-1.5.672-1.5 1.5v3.395l-3.627 3.244c-.205.185-.373.56-.373.834v.404c0 .275.185.371.411.215l3.589-2.496v1.904.727c-.446.418-1 .969-1 1.133v.642c0 .274.201.399.446.276l.945-.776h2.215l.945.776c.246.123.447-.002.447-.276v-.642c0-.164-.555-.715-1-1.133v-.727-1.904l3.589 2.496c.226.156.411.061.411-.215v-.404c.002-.276-.165-.651-.371-.834z"/><path d="m151 128-1 3-1-3v-1h2zm5.467 6h-12.934c-.507 0-.704-.57-.438-1.002l6.422-10.654c.267-.432.699-.369.965.062l6.422 10.561c.266.429.069 1.033-.437 1.033zm-2.019-2-4.448-7.227-4.448 7.227h3.448v-1h1 1v1z"/><path d="m132.351 127.596c-.066-.104-1.044-1.6-2.556-2.808l-.384 1.465c.619.683 1.108 1.368 1.394 1.751-.519.703-1.556 2.229-2.62 2.936l-.381 1.453c2.61-1.01 4.454-3.842 4.547-3.988l.259-.403z"/><path d="m127.579 122-.372 1.419c-.391-.104-.792-.169-1.208-.169-3.528 0-6.237 4.168-6.352 4.346l-.256.404.259.404c.102.156 2.233 3.412 5.162 4.17l-.374 1.426h1.481l3.142-12zm-2.744 4.377s.508.996 1.172 1.63l-.229.872-.468.469c-.704-.449-1.229-1.125-1.539-1.906zm-3.639 1.619c.483-.655 1.298-1.742 2.267-2.579-.288.46-.461 1-.461 1.583 0 1.484 1.082 2.709 2.498 2.949l-.368 1.406c-1.802-.523-3.324-2.537-3.936-3.359z"/><path d="m108.351 127.596c-.114-.178-2.822-4.346-6.351-4.346s-6.237 4.168-6.352 4.346l-.257.404.259.404c.114.178 2.822 4.346 6.352 4.346 3.528 0 6.236-4.168 6.351-4.346l.259-.404zm-7.516-1.219s.695 1.373 1.523 1.92l-1.048 1.051c-.704-.449-1.229-1.125-1.539-1.906zm1.165 5.227c-2.688 0-4.099-2.658-4.805-3.606.483-.655 1.298-1.742 2.267-2.579-.288.46-.461 1-.461 1.583 0 1.656 1.343 3 3 3s3-1.344 3-3c0-.603-.183-1.161-.487-1.631 1.048.896 1.88 2.082 2.292 2.635-.872 1.178-2.118 3.598-4.806 3.598z"/><path d="m76.001 126.462c-.546-2.983 2.624-5.004 2.624-5.004-1 3-.377 4.683 1.167 5.334s.345-2.479.222-2.747c2.124 1.424 3.431 3.866 2.91 6.205s-2.348 3.023-3.783 3.525c-2.188.553-.335-1.191-.087-2.672.249-1.479-.633-2.611-1.479-3.479.246.562.182 2.498-.267 3.42s-1.612 2.461-2.659 1.789-1.396-1.729-1.489-2.279c-.095-.551-.253-2.242 1.249-3.555-.294.825.045 2.578 1.125 2.312 1.08-.265.699-1.582.467-2.849z"/><path d="m51.188 125.576c-1.605 2.061-1.241 4.072-1.032 5.283l-2.156 1.934v1.414.011l2.006-2.017.994-.555c1.313-.018 8.993 3.379 8.993-9.646-4.892 1.419-6.89 1.119-8.805 3.576zm3.734 2.315c-1.344.723-3.138 1.696-3.673 2.34-.874 1.052-1.249 1.129-.577-.412.797-1.829 2.986-3.155 4.579-4.006 0 0 2.358-1.158 3.134-2.299.368-.541.666-.621.775-.496.108.125.108.125-.179.797-1.13 2.319-2.421 3.199-4.059 4.076z"/><path d="m25 130h4v4h-4zm6 4h4v-4h-4zm5-9v1h-1v2h-4v-3h-2v3h-4v-2h-1v-1h1.111c-.017 0-.005-.217.042-.385l.343-1.772c.146-.521.589-.843 1.104-.843.21 0 .422.07.614.184l2.387 1.438c.158.091.292.215.398.356.105-.143.239-.261.396-.353l2.393-1.437c.191-.11.404-.17.614-.17.516 0 .958.348 1.104.869l.339 1.719c.047.172.06.392.042.392zm-9.325-1.904s-.732 1.904-.675 1.904h2.813zm6.651-.065-2.012 1.969h2.687c.06 0-.675-1.969-.675-1.969z"/><path d="m35 130h-4v4h-2v-4h-4v-2h4v-3h2v3h4z" opacity=".3"/><path d="m6 122.229c-3.188 0-5.771 2.584-5.771 5.771s2.584 5.771 5.771 5.771 5.771-2.584 5.771-5.771-2.584-5.771-5.771-5.771zm1 8.771h-2v-1h2zm-.138-2.491c-.052.27-.32.491-.594.491h-.536c-.274 0-.542-.221-.594-.491l-.579-3.018c-.052-.27.131-.491.406-.491h2.07c.274 0 .458.221.405.491z"/><path d="m467 103h-2.587l1.828-1.828-1.414-1.414-1.827 1.828v-2.586h-2v2.586l-1.828-1.828-1.415 1.414 1.828 1.828h-2.585v2h2.586l-1.828 1.828 1.414 1.414 1.828-1.828v2.586h2v-2.585l1.826 1.827 1.415-1.414-1.828-1.828h2.587z"/><path d="m434 103h9v3h-9z"/><path d="m419 103h-4v-4h-3v4h-4v3h4v4h3v-4h4z"/><path d="m387.293 105.293-2.95 2.949 1.415 1.415 2.949-2.95 1.293 1.293v-4h-4z"/><path d="m395.657 99.758-1.415-1.415-2.949 2.95-1.293-1.293v4h4l-1.293-1.293z"/><path d="m372 102-1.292-1.292-2.938 2.938-1.416-1.416 2.938-2.938-1.292-1.292h4zm-7.768 2.354-2.938 2.939-1.294-1.293v4h4l-1.293-1.293 2.938-2.939z"/><path d="m342 108.008 6-4.479-6-4.529v2.708c-4.292.229-5.845 2.917-6 6.292.983-2.125 3.594-2.938 6-3z"/><path d="m319 104v-6h-3v6h-2.962l4.448 6 4.497-6z"/><path d="m294.535 98-4.497 6h2.962v6h3v-6h2.983z"/><path d="m270 109.008 6-4.481-6-4.527v3h-6v3h6z"/><path d="m252 103h-6v-3l-6 4.527 6 4.481v-3.008h6z"/><path d="m222 98.229c-3.188 0-5.771 2.584-5.771 5.771s2.584 5.771 5.771 5.771 5.771-2.584 5.771-5.771-2.584-5.771-5.771-5.771zm-4.271 5.771c0-2.355 1.916-4.271 4.271-4.271.827 0 1.594.248 2.249.656l-5.865 5.863c-.408-.654-.655-1.421-.655-2.248zm4.271 4.271c-.804 0-1.546-.236-2.188-.623l5.837-5.836c.387.643.622 1.385.622 2.188 0 2.355-1.916 4.271-4.271 4.271z"/><path d="m198 99.729c2.354 0 4.271 1.916 4.271 4.271s-1.916 4.271-4.271 4.271-4.271-1.916-4.271-4.271 1.916-4.271 4.271-4.271m0-1.5c-3.188 0-5.771 2.584-5.771 5.771s2.584 5.771 5.771 5.771 5.771-2.584 5.771-5.771-2.584-5.771-5.771-5.771z"/><path d="m195.501 104.635 1.132-1.131.866.866 2.044-2.044 1.131 1.131-3.174 3.174z"/><path d="m174 99.729c2.354 0 4.271 1.916 4.271 4.271s-1.916 4.271-4.271 4.271-4.271-1.916-4.271-4.271 1.916-4.271 4.271-4.271m0-1.5c-3.188 0-5.771 2.584-5.771 5.771s2.584 5.771 5.771 5.771 5.771-2.584 5.771-5.771-2.584-5.771-5.771-5.771z"/><path d="m173.999 104.807-1.352 1.35-.805-.803 1.352-1.354-1.353-1.354.805-.804 1.353 1.351 1.353-1.351.805.804-1.353 1.354 1.352 1.354-.804.804z"/><path d="m155.678 103h-1.65-.062c-.374-1.479-1.966-2.636-2.966-3.004v-.073-1.104-.819h-2v.818 1.104.076c-2 .371-2.683 1.525-3.056 3.001h-.07-1.65-.224v2h.224 1.65.062c.366 1.487 1.063 2.653 3.063 3.026v.051 1.104.82h2v-.818-1.104-.049c1-.37 2.606-1.538 2.974-3.028h.054 1.65.323v-2zm-4.678 4.062v-2.062h-2v2.061c-1-.321-1.78-1.086-2.098-2.061h2.098v-2h-2.089c.32-.962 1.089-1.715 2.089-2.034v2.034h2v-2.037c1 .316 1.678 1.072 2 2.037h-2v2h2.008c-.318.977-1.008 1.743-2.008 2.062z"/><path d="m126 98.229c-3.188 0-5.771 2.584-5.771 5.771s2.584 5.771 5.771 5.771 5.771-2.584 5.771-5.771-2.584-5.771-5.771-5.771zm-1 2.771h2v1h-2zm3 6h-4v-1h1v-2h-1v-1h3v3h1z"/><path d="m102 98.229c-3.188 0-5.771 2.584-5.771 5.771s2.584 5.771 5.771 5.771 5.771-2.584 5.771-5.771-2.584-5.771-5.771-5.771zm1 8.771h-2v-1h2zm0-2s-1.375 0-2 0c-.031-1.359 1.105-1.585 1.105-1.585.296-.192.312-.2.312-.493 0-.222-.157-.365-.406-.365-.404 0-.601-.033-.623.346-.01.174-.151.099-.323.099 0 0-.812 0-1.432 0 0-1.833 1.136-2.392 2.382-2.392.71 0 2.28.173 2.28 1.97s-1.295 2.42-1.295 2.42z"/><path d="m78 98.229c-3.188 0-5.771 2.584-5.771 5.771s2.584 5.771 5.771 5.771 5.771-2.584 5.771-5.771-2.584-5.771-5.771-5.771zm-.537 9.031-2.767-2.77 1.745-1.744 1.021 1.021 2.361-2.361 1.742 1.744z"/><path d="m54 98.229c-3.188 0-5.771 2.584-5.771 5.771s2.584 5.771 5.771 5.771 5.771-2.584 5.771-5.771-2.584-5.771-5.771-5.771zm3.535 7.185-2.121 2.121-1.414-1.414-1.414 1.414-2.122-2.121 1.415-1.414-1.414-1.414 2.121-2.122 1.414 1.414 1.414-1.413 2.122 2.121-1.414 1.414z"/><path d="m30 98.229c-3.188 0-5.771 2.584-5.771 5.771s2.584 5.771 5.771 5.771 5.771-2.584 5.771-5.771-2.584-5.771-5.771-5.771zm3 6.771h-6v-2h6z"/><path d="m6 98.229c-3.188 0-5.771 2.584-5.771 5.771s2.584 5.771 5.771 5.771 5.771-2.584 5.771-5.771-2.584-5.771-5.771-5.771zm3 6.771h-2v2h-2v-2h-2v-2h2v-2h2v2h2z"/><path d="m459.149 84.059 3.528-3.528-3.528-3.528 1.98-1.98 5.515 5.5-.005.005.007.008-5.517 5.502z"/><path d="m440.854 84.059-3.528-3.528 3.528-3.528-1.979-1.98-5.515 5.5.005.005-.007.008 5.517 5.502z"/><path d="m420 82.5c0-.276-.225-.5-.5-.5h-10c-.276 0-.5.224-.5.5v1c0 .276.224.5.5.5h10c.275 0 .5-.224.5-.5z"/><path d="m420 81h-11l5.5-5.641z"/><path d="m393.5 75h-1c-.276 0-.5.224-.5.5v4.375l-5-4.875v11l5-4.875v4.375c0 .276.224.5.5.5h1c.275 0 .5-.224.5-.5v-10c0-.276-.224-.5-.5-.5z"/><path d="m371.5 75h-1c-.276 0-.5.224-.5.5v4.375l-5-4.875v4.875l-5-4.875v11l5-4.875v4.875l5-4.875v4.375c0 .276.224.5.5.5h1c.275 0 .5-.224.5-.5v-10c0-.276-.224-.5-.5-.5z"/><path d="m346.641 80.5-5.641-5.5v4.875l-5-4.875v11l5-4.875v4.875z"/><path d="m323 84.5c0 .275-.226.5-.5.5h-8c-.275 0-.5-.225-.5-.5v-8c0-.275.225-.5.5-.5h8c.274 0 .5.225.5.5z"/><path d="m293 84.5c0 .276-.225.5-.5.5h-2c-.276 0-.5-.224-.5-.5v-8c0-.276.224-.5.5-.5h2c.275 0 .5.224.5.5z"/><path d="m297 84.5c0 .276-.225.5-.5.5h-2c-.276 0-.5-.224-.5-.5v-8c0-.276.224-.5.5-.5h2c.275 0 .5.224.5.5z"/><path d="m266 86v-11l9 5.5z"/><path d="m252 75-5 4.875v-4.875l-5.641 5.5 5.641 5.5v-4.875l5 4.875z"/><path d="m228 75-5 4.875v-4.875l-5 4.875v-4.375c0-.276-.225-.5-.5-.5h-1c-.276 0-.5.224-.5.5v10c0 .276.224.5.5.5h1c.275 0 .5-.224.5-.5v-4.375l5 4.875v-4.875l5 4.875z"/><path d="m201 75-5 4.875v-4.375c0-.276-.225-.5-.5-.5h-1c-.276 0-.5.224-.5.5v10c0 .276.224.5.5.5h1c.275 0 .5-.224.5-.5v-4.375l5 4.875z"/><path d="m180 79.976-3-2.952v1.976h-2v-2h1.951l-2.951-3-3 3h2v2h-2v-1.976l-3 2.952 3 3v-1.976h2v2h-2l3 3 2.951-3h-1.951v-2h2v1.976z"/><path d="m147.422 79.684 1.363-1.363 1.465 1.466 4.303-4.303 1.362 1.364-5.663 5.668z"/><path d="m153 82.309v.691c0 .55-.45 1-1 1h-5c-.55 0-1-.45-1-1v-5c0-.55.45-1 1-1h3.492l1.773-1.774c-.4-.135-.821-.226-1.265-.226h-3c-2.2 0-4 1.8-4 4v3c0 2.2 1.8 4 4 4h3c2.2 0 4-1.8 4-4v-1.691z"/><path d="m128.129 79.601s-2.819-.187-3.902 1.158c.565-3.276 3.913-3.328 3.913-3.328l-.006-2.165 3.592 3.188-3.597 3.239z"/><path d="m129 82.998v.002c0 .55-.45 1-1 1h-5c-.55 0-1-.45-1-1v-5c0-.55.45-1 1-1h1.449c.521-.543 1.222-.969 2.176-1.204l-.016-.796h-2.609c-2.2 0-4 1.8-4 4v3c0 2.2 1.8 4 4 4h3c2.2 0 4-1.8 4-4v-.525z"/><path d="m100.906 80.894 4.054-4.052 1.131 1.131-4.118 4.118-1.61.499zm5.043-5.042 1.131-1.131.92.279.212.852-1.132 1.131z"/><path d="m105 81.75v1.25c0 .55-.45 1-1 1h-5c-.55 0-1-.45-1-1v-5c0-.55.45-1 1-1h3.112l1.864-1.864c-.313-.08-3.976-.136-3.976-.136-2.2 0-4 1.8-4 4v3c0 2.2 1.8 4 4 4h3c2.2 0 4-1.8 4-4v-2.25z"/><path d="m77.542 73.054c-1.108 3.556-4.371 5.514-4.371 8.892 0 2.474 2.155 3.907 4.371 4.021 2.079-.114 4.371-1.575 4.371-4.052 0-3.374-3.309-5.306-4.371-8.861zm-.992 9.987s-.097.611-.161.981c-1.271-.37-1.776-1.124-1.961-2.163-.185-1.04.063-1.891 1.318-3.402 0 0-.387 1.802-.049 3.169.226.913.853 1.415.853 1.415z"/><path d="m54 74.229c-3.188 0-5.771 2.584-5.771 5.771s2.584 5.771 5.771 5.771 5.771-2.584 5.771-5.771-2.584-5.771-5.771-5.771zm-4.271 5.771c0-2.355 1.916-4.271 4.271-4.271v8.543c-2.355-.001-4.271-1.917-4.271-4.272z"/><path d="m34.779 78.699c0 .843-.279 1.73-.695 2.585-1.568 2.435-3.553 4.669-3.553 4.669s-2.28-2.156-3.738-4.713c-.365-.798-.604-1.643-.604-2.488 0-2.377 1.922-4.441 4.295-4.441s4.295 2.011 4.295 4.388zm-2.042-.221c0-1.225-.991-2.215-2.214-2.215-1.222 0-2.214.99-2.214 2.215 0 1.224.992 2.214 2.214 2.214s2.214-.991 2.214-2.214z"/><path d="m.94 82.814 2.229 2.229-3.327 1.114zm.903-.814 6.142-6.142 2.141 2.142-6.143 6.142zm7.001-6.999.941-.966c.087-.087.202-.135.326-.135.123 0 .239.048.326.134l1.53 1.53c.179.18.179.473 0 .651l-.986.923z"/><path d="m468 51.438c0-.241-.195-.438-.438-.438h-11.125c-.242 0-.438.196-.438.438v10.125c0 .241.195.438.438.438h11.125c.242 0 .438-.196.438-.438zm-1 5.562-2.359-2.875-2.932 3.178.743 1.557-2.983-1.312-2.469 1.827v-7.375h10zm-6.238-2.502c0-.742-.603-1.342-1.342-1.342-.74 0-1.343.6-1.343 1.342s.603 1.342 1.343 1.342c.739 0 1.342-.6 1.342-1.342z"/><path d="m441 56.434v-.867-2.817c0-.412-.339-.75-.75-.75h-7.5c-.412 0-.75.338-.75.75v6.5c0 .412.338.75.75.75h7.5c.411 0 .75-.338.75-.75z"/><path d="m444 53-3 3 3 3z"/><path d="m410 52.5c0 .275-.226.5-.5.5h-1c-.275 0-.5-.225-.5-.5v-1c0-.275.225-.5.5-.5h1c.274 0 .5.225.5.5z"/><path d="m414 55.5c0 .275-.226.5-.5.5h-5c-.275 0-.5-.225-.5-.5v-1c0-.275.225-.5.5-.5h5c.274 0 .5.225.5.5z"/><path d="m412 58.5c0 .275-.226.5-.5.5h-3c-.275 0-.5-.225-.5-.5v-1c0-.275.225-.5.5-.5h3c.274 0 .5.225.5.5z"/><path d="m415 61.5c0 .275-.226.5-.5.5h-6c-.275 0-.5-.225-.5-.5v-1c0-.275.225-.5.5-.5h6c.274 0 .5.225.5.5z"/><path d="m416 51h1v11h-1z"/><path d="m417.334 56.5 1.666-1.25v.75h2v1h-2v.75z"/><path d="m391 52.5c0 .275-.226.5-.5.5h-1c-.275 0-.5-.225-.5-.5v-1c0-.275.225-.5.5-.5h1c.274 0 .5.225.5.5z"/><path d="m395 55.5c0 .275-.226.5-.5.5h-5c-.275 0-.5-.225-.5-.5v-1c0-.275.225-.5.5-.5h5c.274 0 .5.225.5.5z"/><path d="m393 58.5c0 .275-.226.5-.5.5h-3c-.275 0-.5-.225-.5-.5v-1c0-.275.225-.5.5-.5h3c.274 0 .5.225.5.5z"/><path d="m396 61.5c0 .275-.226.5-.5.5h-6c-.275 0-.5-.225-.5-.5v-1c0-.275.225-.5.5-.5h6c.274 0 .5.225.5.5z"/><path d="m387 51h1v11h-1z"/><path d="m386.666 56.5-1.666-1.25v.75h-2v1h2v.75z"/><path d="m360 61.5c0 .275.225.5.5.5h1c.274 0 .5-.225.5-.5v-1c0-.275-.226-.5-.5-.5h-1c-.275 0-.5.225-.5.5z"/><path d="m360 58.5c0 .275.225.5.5.5h1c.274 0 .5-.225.5-.5v-1c0-.275-.226-.5-.5-.5h-1c-.275 0-.5.225-.5.5z"/><path d="m360 55.5c0 .275.225.5.5.5h1c.274 0 .5-.225.5-.5v-1c0-.275-.226-.5-.5-.5h-1c-.275 0-.5.225-.5.5z"/><path d="m360 52.5c0 .275.225.5.5.5h1c.274 0 .5-.225.5-.5v-1c0-.275-.226-.5-.5-.5h-1c-.275 0-.5.225-.5.5z"/><path d="m363 61.5c0 .275.225.5.5.5h8c.274 0 .5-.225.5-.5v-1c0-.275-.226-.5-.5-.5h-8c-.275 0-.5.225-.5.5z"/><path d="m363 58.5c0 .275.225.5.5.5h8c.274 0 .5-.225.5-.5v-1c0-.275-.226-.5-.5-.5h-8c-.275 0-.5.225-.5.5z"/><path d="m363 55.5c0 .275.225.5.5.5h8c.274 0 .5-.225.5-.5v-1c0-.275-.226-.5-.5-.5h-8c-.275 0-.5.225-.5.5z"/><path d="m363 52.5c0 .275.225.5.5.5h8c.274 0 .5-.225.5-.5v-1c0-.275-.226-.5-.5-.5h-8c-.275 0-.5.225-.5.5z"/><path d="m336 61.5c0 .275.225.5.5.5h11c.274 0 .5-.225.5-.5v-1c0-.275-.226-.5-.5-.5h-11c-.275 0-.5.225-.5.5z"/><path d="m336 58.5c0 .275.225.5.5.5h11c.274 0 .5-.225.5-.5v-1c0-.275-.226-.5-.5-.5h-11c-.275 0-.5.225-.5.5z"/><path d="m336 55.5c0 .275.225.5.5.5h11c.274 0 .5-.225.5-.5v-1c0-.275-.226-.5-.5-.5h-11c-.275 0-.5.225-.5.5z"/><path d="m336 52.5c0 .275.225.5.5.5h11c.274 0 .5-.225.5-.5v-1c0-.275-.226-.5-.5-.5h-11c-.275 0-.5.225-.5.5z"/><path d="m317 52.5c0 .275.225.5.5.5h6c.274 0 .5-.225.5-.5v-1c0-.275-.226-.5-.5-.5h-6c-.275 0-.5.225-.5.5z"/><path d="m313 55.5c0 .275.225.5.5.5h10c.274 0 .5-.225.5-.5v-1c0-.275-.226-.5-.5-.5h-10c-.275 0-.5.225-.5.5z"/><path d="m315 58.5c0 .275.225.5.5.5h8c.274 0 .5-.225.5-.5v-1c0-.275-.226-.5-.5-.5h-8c-.275 0-.5.225-.5.5z"/><path d="m312 61.5c0 .275.225.5.5.5h11c.274 0 .5-.225.5-.5v-1c0-.275-.226-.5-.5-.5h-11c-.275 0-.5.225-.5.5z"/><path d="m298 52.5c0 .275-.226.5-.5.5h-7c-.275 0-.5-.225-.5-.5v-1c0-.275.225-.5.5-.5h7c.274 0 .5.225.5.5z"/><path d="m298 58.5c0 .275-.226.5-.5.5h-7c-.275 0-.5-.225-.5-.5v-1c0-.275.225-.5.5-.5h7c.274 0 .5.225.5.5z"/><path d="m300 61.5c0 .275-.226.5-.5.5h-11c-.275 0-.5-.225-.5-.5v-1c0-.275.225-.5.5-.5h11c.274 0 .5.225.5.5z"/><path d="m300 55.5c0 .275-.226.5-.5.5h-11c-.275 0-.5-.225-.5-.5v-1c0-.275.225-.5.5-.5h11c.274 0 .5.225.5.5z"/><path d="m271 52.5c0 .275-.226.5-.5.5h-6c-.275 0-.5-.225-.5-.5v-1c0-.275.225-.5.5-.5h6c.274 0 .5.225.5.5z"/><path d="m275 55.5c0 .275-.226.5-.5.5h-10c-.275 0-.5-.225-.5-.5v-1c0-.275.225-.5.5-.5h10c.274 0 .5.225.5.5z"/><path d="m273 58.5c0 .275-.226.5-.5.5h-8c-.275 0-.5-.225-.5-.5v-1c0-.275.225-.5.5-.5h8c.274 0 .5.225.5.5z"/><path d="m276 61.5c0 .275-.226.5-.5.5h-11c-.275 0-.5-.225-.5-.5v-1c0-.275.225-.5.5-.5h11c.274 0 .5.225.5.5z"/><path d="m249.5 50h-3.5-3.5c-.567 0-1.5 0-1.5 0v3h.498c.002-1 .617-1 1.502-1h2v6.5l-1 .5v1h2 2v-1l-1-.5v-6.5h2c.885 0 1.5 0 1.502 1h.498v-3s-.933 0-1.5 0z"/><path d="m242 60.25-1.666 1.25 1.666 1.25v-.75h8v.75l1.666-1.25-1.666-1.25v.75h-8z"/><path d="m227.5 50h-3.5-3.5c-.567 0-1.5 0-1.5 0v3h.498c.002-1 .617-1 1.502-1h2v8.5l-1 .5v1h2 2v-1l-1-.5v-8.5h2c.885 0 1.5 0 1.502 1h.498v-3s-.933 0-1.5 0z"/><path d="m217.75 52-1.25-1.666-1.25 1.666h.75v8h-.75l1.25 1.666 1.25-1.666h-.75v-8z"/><path d="m200.786 50.572-.012-.572h-2.358-1.899v.572c1 .269 1.37.3 1.219 1.162l-1.736 8.485c-.114.646-1 1.12-2 1.209v.572h5v-.572c-1-.089-1.208-.531-1.095-1.178l1.281-8.25c.002 0 .41-1.159 1.6-1.428z"/><path d="m175.634 55.75s1.137-.63 1.137-2.58c0-1.955-1.562-3.16-3.062-3.16l-4.709-.01v.715c1 .235 1 .391 1 1.145v8.275c0 .565-.5.895-1 .975v.89h5c1.55 0 3.625-1.281 3.625-3.061 0-2.5-1.991-3.189-1.991-3.189zm-3.634-4.75c2.108 0 3.229.672 3.229 2 0 .988-.802 2-1.838 2s-1.391 0-1.391 0 0-3.609 0-4zm1.609 9h-1.609v-4h1.594s2.187 1.014 2.187 2.188c0 1.169-1.062 1.812-2.172 1.812z"/><path d="m156 61.338v.662h-4.17s0-.355 0-.662c.75 0 1.002-.771.799-1.321-.148-.403-.824-2.22-.824-2.22h-3.91s-.574 1.455-.918 2.348c-.344.895.462 1.193 1.203 1.193v.662h-3.649v-.662s.562-.24.839-.515c.275-.276.517-.75.517-.75l3.995-10.063h.931l3.85 9.978s.2.504.6.925c.399.419.737.425.737.425zm-4.44-4.551-1.16-3.167-.457-1.399-1.787 4.566z"/><path d="m127.062 57c0 .586-.477 1.062-1.062 1.062s-1.062-.477-1.062-1.062.478-1.062 1.062-1.062 1.062.476 1.062 1.062zm4.938-3v6c0 .55-.45 1-1 1h-10c-.55 0-1-.45-1-1v-6c0-.55.45-1 1-1h1.5s1.016-2 2.5-2h2s2.5 2 2.5 2h1.5c.55 0 1 .45 1 1zm-3.562 3c0-1.344-1.094-2.438-2.438-2.438-1.345 0-2.438 1.094-2.438 2.438s1.094 2.438 2.438 2.438 2.438-1.094 2.438-2.438zm1.562-3h-1v1h1z"/><path d="m129 54h1v1h-1z" opacity=".5"/><path d="m105.474 53.708-.625 1.245h-5.922l-.4-1.245.947-3.46c.014-.137.138-.248.276-.248h4.5c.138 0 .262.111.275.248z"/><path d="m104.811 60.242c-.034-.133-.173-.242-.311-.242h-5c-.139 0-.277.109-.312.242l-.379 1.516c-.032.133.053.242.191.242h6c.138 0 .223-.109.188-.242z"/><path d="m106 54-1 2h-6l-1-2h-2v7h2v-2h8l.003 2h1.997v-7z"/><path d="m74 50.5c0-.275.225-.5.5-.5h8c.274 0 .5.225.5.5v11.5l-4.5-4.438-4.5 4.445z"/><path d="m50.75 50-1.75 1.75v10.25h9v-10h-7.5l1-1h7.5v10l1-1v-10z"/><path d="m29 50h-4.735c-.139 0-.254.112-.254.252l-.011 4.748 7 7 5-5zm-1.803 3.183c-.394.395-1.031.395-1.425 0-.394-.394-.394-1.03 0-1.425.395-.394 1.031-.394 1.425 0s.394 1.031 0 1.425z"/><path d="m32 50h-1l7 7-4.5 4.5.5.5 5-5z"/><path d="m5 50h-4.735c-.139 0-.254.112-.254.252l-.011 4.748 7 7 5-5zm-1.803 3.183c-.394.395-1.031.395-1.425 0-.394-.394-.394-1.03 0-1.425.395-.394 1.031-.394 1.425 0s.394 1.031 0 1.425z"/><path d="m457 36h-1v-10h1zm4 2h1v-.906h-1zm-2-12h-1v10h1zm4 0h-2v10h2zm-6 11v1h3v-1zm6 1h1v-.906h-1zm2-.906v.906h2v-.906zm2-11.094h-1v10h1 1v-10zm-2 0h-1v10h1z"/><path d="m434 28h1v1h-1zm8 3v1h2v1 1h-3v-1-1-1h-2v-3h-1v-2h1 5v5zm1-1v-3h-3v3zm-2-1h1v-1h-1zm-6 6h-1v1h1zm3 3h1v-1h-1zm-3-5h2v5h-5v-5h2v-1h1zm-2 1v3h3v-3zm0-2h-1v-1-5h5v3h1v1h-1v1h-4zm0-2h3v-3h-3zm10 6h1v-1h-1zm-2 1v1h2 1v-1h-1zm1-1v-1h-2v-1-1-1h-1-2v1h2v1 1h-1v1h1v1h1 1v-1z"/><path d="m419.225 32.016c0 1.466-.506 2.904-1.424 4.051l-.063.079-.803-.658.062-.077c.768-.962 1.19-2.168 1.19-3.395 0-1.249-.437-2.472-1.228-3.443l-.065-.08.82-.635.062.076c.935 1.151 1.449 2.601 1.449 4.082zm-4.204-2.589c.581.698.932 1.594.932 2.569 0 .934-.324 1.795-.862 2.479l.673.549c.662-.832 1.059-1.886 1.059-3.028 0-1.177-.418-2.256-1.112-3.099zm-7.021.573v4h3l3 2v-8l-3 2z"/><path d="m387 30 3-2v8l-3-2h-3v-4zm4.687-1.103-.687.53c.58.698.932 1.594.932 2.569 0 .934-.324 1.795-.863 2.479l.675.549c.659-.832 1.057-1.886 1.057-3.028-.002-1.177-.419-2.256-1.114-3.099z"/><path d="m363 30 3-2v8l-3-2h-3v-4zm8.121.586-.707-.707-1.414 1.414-1.414-1.415-.707.708 1.414 1.414-1.414 1.414.707.707 1.414-1.414 1.414 1.414.707-.707-1.414-1.414z"/><path d="m348 32.25v.25 2.75c0 .138-.112.25-.25.25h-.5c-.139 0-.25-.112-.25-.25v-2.75-.25c0-2.619-2.381-4.5-5-4.5s-5 1.881-5 4.5v.25 2.75c0 .138-.112.25-.25.25h-.5c-.139 0-.25-.112-.25-.25v-2.75-.25c0-3.17 2.83-6 6-6s6 2.83 6 6zm-8 .95c0-.11-.09-.2-.2-.2h-1.6c-.11 0-.2.09-.2.2v4.6c0 .11.09.2.2.2h1.6c.11 0 .2-.09.2-.2zm6 0c0-.11-.09-.2-.2-.2h-1.6c-.11 0-.2.09-.2.2v4.6c0 .11.09.2.2.2h1.6c.11 0 .2-.09.2-.2z"/><path d="m323 27v5c-2 4-5-1-8 2 0-2 0-3 0-5 1-4 6 2 8-2zm-9 0h-1v11h1z"/><path d="m298 30h-1v-2c0-1.1-.9-2-2-2h-3c-1.101 0-2 .9-2 2v2h-1c-.55 0-1 .45-1 1v6c0 .55.45 1 1 1h9c.55 0 1-.45 1-1v-6c0-.55-.45-1-1-1zm-6-1.5c0-.275.225-.5.5-.5h2c.274 0 .5.225.5.5v1.5h-3z"/><path d="m274 36h-5v-1h5zm0-7h-5v1h5zm0 2h-5v1h5zm-6-2h-1v1h1zm6 4h-5v1h5zm2-7v2 9 1h-11v-1-9-2zm-1 2h-9v9h9zm-7 7h-1v1h1zm0-4h-1v1h1zm0 2h-1v1h1z"/><path d="m246 36.271c-.923 0-1.772-.301-2.472-.801l1.471-1.471h-3.999v2 2l1.453-1.454c.979.766 2.208 1.226 3.547 1.226 3.187 0 5.771-2.584 5.771-5.771h-1.5c0 2.355-1.916 4.271-4.271 4.271z"/><path d="m246 27.729c.922 0 1.771.301 2.471.801l-1.471 1.47h4v-4l-1.454 1.453c-.979-.765-2.208-1.225-3.546-1.225-3.188 0-5.771 2.584-5.771 5.771h1.5c0-2.354 1.916-4.27 4.271-4.27z"/><path d="m227.771 32c0 3.188-2.584 5.771-5.771 5.771-3.188 0-5.771-2.584-5.771-5.771s2.584-5.771 5.771-5.771c1.339 0 2.569.458 3.548 1.224l1.452-1.453v4h-4l1.463-1.463c-.694-.503-1.539-.809-2.463-.809-2.355 0-4.271 1.916-4.271 4.271s1.916 4.271 4.271 4.271c2.354 0 4.271-1.916 4.271-4.271z"/><path d="m198 27.729c2.354 0 4.271 1.916 4.271 4.271s-1.916 4.271-4.271 4.271-4.271-1.916-4.271-4.271 1.916-4.271 4.271-4.271m0-1.5c-3.188 0-5.771 2.584-5.771 5.771s2.584 5.771 5.771 5.771 5.771-2.584 5.771-5.771-2.584-5.771-5.771-5.771z"/><path d="m197 34.027v-4.009l2.969 2.004z"/><path d="m180 33c-.001 0-2-7-2-7h-8s-1.99 7-1.991 7l-.009 4.75c0 .138.111.25.25.25h11.5c.138 0 .25-.112.25-.25zm-9.031-5h6.062l.97 5h-2l-.5 2h-3l-.5-2h-2z"/><path d="m150 26.229c-3.188 0-5.771 2.584-5.771 5.771s2.583 5.771 5.771 5.771c3.187 0 5.771-2.584 5.771-5.771s-2.584-5.771-5.771-5.771zm0 10.042c-2.355 0-4.271-1.916-4.271-4.271s1.916-4.271 4.271-4.271c2.354 0 4.271 1.916 4.271 4.271s-1.916 4.271-4.271 4.271z"/><path d="m150 29 2.5 3h-1.5v3h-2v-3h-1.5z"/><path d="m126 26.229c-3.188 0-5.771 2.584-5.771 5.771s2.583 5.771 5.771 5.771c3.187 0 5.771-2.584 5.771-5.771s-2.584-5.771-5.771-5.771zm0 10.042c-2.355 0-4.271-1.916-4.271-4.271s1.916-4.271 4.271-4.271c2.354 0 4.271 1.916 4.271 4.271s-1.916 4.271-4.271 4.271z"/><path d="m127 29h-2v3h-1.5l2.5 3 2.5-3h-1.5z"/><path d="m102.104 34 2.896-3h-2v-5h-3v5h-2l2.896 3h-4.896v4h11v-4zm3.771 2h-1.75v-1h1.75z"/><path d="m79.615 38h5.385l-4.309-12h-2.083l.198 3h-1.615l.203-3h-2.088l-4.306 12h5.385l.403-4h2.424zm-2.737-5 .27-3h1.705l.271 3z"/><path d="m54 29h-1v4h3v-1h-2z"/><path d="m54 26.229c-3.188 0-5.771 2.584-5.771 5.771s2.584 5.771 5.771 5.771 5.771-2.584 5.771-5.771-2.584-5.771-5.771-5.771zm0 10.042c-2.355 0-4.271-1.916-4.271-4.271s1.916-4.271 4.271-4.271c2.354 0 4.271 1.916 4.271 4.271s-1.916 4.271-4.271 4.271z"/><path d="m31 27v3h3z"/><path d="m30 26h-4.75c-.138 0-.25.112-.25.25v11.5c0 .138.111.25.25.25h8.5c.138 0 .25-.112.25-.25v-6.75h-4z"/><path d="m6.562 25.562-6.562 6.438h2v6h3v-4h3v4h3v-6h2z"/><path d="m467.75 3h-2.75v-1c0-.55-.45-1-1-1h-3c-.551 0-1 .45-1 1v1h-2.75c-.138 0-.25.112-.25.25v.5c0 .138.111.25.25.25h10.5c.138 0 .25-.112.25-.25v-.5c0-.138-.112-.25-.25-.25zm-6.729 0h-.021v-1h3v1zm-3.021 10c0 .55.449 1 1 1h7c.55 0 1-.45 1-1v-8h-9zm7-7h1v7h-1zm-2 0h1v7h-1zm-2 0h1v7h-1zm-2 0h1v7h-1z"/><path d="m460 13h-1v-7h1zm2-7h-1v7h1zm2 0h-1v7h1zm2 0h-1v7h1z" opacity=".5"/><path d="m438 13.732c-.25 0-.496-.021-.738-.053l-.379-1.515-.057-.016c-.325-.093-.641-.224-.935-.387l-.051-.028-1.337.803c-.422-.331-.757-.671-1.047-1.047l.803-1.337-.028-.051c-.165-.297-.295-.611-.385-.934l-.017-.056-1.516-.379c-.034-.278-.053-.507-.053-.74 0-.25.021-.496.053-.738l1.516-.379.017-.056c.09-.321.22-.636.386-.935l.028-.051-.804-1.338c.328-.417.667-.752 1.048-1.045l1.337.802.051-.028c.297-.165.611-.295.934-.385l.057-.016.379-1.516c.277-.034.507-.053.737-.053.253 0 .496.021.74.053l.379 1.516.057.016c.321.09.637.22.934.385l.051.028 1.336-.802c.421.331.757.669 1.048 1.045l-.803 1.338.028.051c.163.294.294.608.387.935l.017.056 1.515.379c.034.278.053.507.053.738 0 .252-.021.498-.053.74l-1.515.379-.017.056c-.094.326-.224.641-.387.934l-.027.051.802 1.336c-.33.421-.669.757-1.045 1.048l-1.337-.804-.051.028c-.293.163-.606.294-.936.388l-.057.016-.379 1.515c-.278.035-.506.053-.739.053zm0-7.884c-1.185 0-2.146.963-2.146 2.146 0 1.185.963 2.148 2.146 2.148 1.185 0 2.147-.964 2.147-2.148.001-1.183-.962-2.146-2.147-2.146z"/><path d="m411 14h-2v-3h2zm3-5h-2v5h2zm3-3h-2v8h2zm3-4h-2v12h2z"/><path d="m391 6.5c0 .276-.225.5-.5.5h-1c-.276 0-.5-.224-.5-.5v-4c0-.276.224-.5.5-.5h1c.275 0 .5.224.5.5zm1-3.908v1.657c1.345.72 2.271 2.122 2.271 3.751 0 2.355-1.916 4.271-4.271 4.271s-4.271-1.916-4.271-4.271c0-1.629.927-3.031 2.271-3.751v-1.657c-2.2.814-3.771 2.925-3.771 5.408 0 3.188 2.584 5.771 5.771 5.771s5.771-2.584 5.771-5.771c0-2.483-1.571-4.594-3.771-5.408z"/><path d="m372.131 12.684-2.996-2.996c.486-.757.773-1.653.773-2.615 0-2.67-2.172-4.841-4.841-4.841-2.668 0-4.84 2.171-4.84 4.841 0 2.668 2.172 4.838 4.84 4.838.965 0 1.861-.286 2.616-.773l2.996 2.996c.1.1.264.1.363 0l1.087-1.087c.101-.1.101-.264.002-.363zm-10.365-5.612c0-1.822 1.482-3.304 3.303-3.304 1.822 0 3.304 1.481 3.304 3.304 0 1.82-1.48 3.302-3.304 3.302-1.821 0-3.303-1.481-3.303-3.302z"/><path d="m363 6h4v2h-4z"/><path d="m348.131 12.684-2.996-2.996c.486-.757.773-1.653.773-2.615 0-2.67-2.172-4.841-4.841-4.841-2.668 0-4.84 2.171-4.84 4.841 0 2.668 2.172 4.838 4.84 4.838.965 0 1.861-.286 2.616-.773l2.996 2.996c.1.1.264.1.363 0l1.087-1.087c.101-.1.101-.264.002-.363zm-7.063-2.31c-1.819 0-3.303-1.481-3.303-3.302 0-1.822 1.482-3.304 3.303-3.304 1.822 0 3.304 1.481 3.304 3.304-.001 1.821-1.481 3.302-3.304 3.302z"/><path d="m342 5h-2v1h-1v2h1v1h2v-1h1v-2h-1z"/><path d="m322.94 10.82-2.821-2.821 2.82-2.82-2.118-2.119-2.821 2.821-2.82-2.82-2.119 2.117 2.821 2.821-2.821 2.821 2.118 2.119 2.821-2.821 2.822 2.821z"/><path d="m288.28 9.464 2.122-2.121 2.067 2.067 6.067-6.067 2.121 2.122-8.184 8.191z"/><path d="m267 9.5c0 .275-.226.5-.5.5h-2c-.275 0-.5-.225-.5-.5v-2c0-.275.225-.5.5-.5h2c.274 0 .5.225.5.5zm0 2c0-.275-.226-.5-.5-.5h-2c-.275 0-.5.225-.5.5v2c0 .275.225.5.5.5h2c.274 0 .5-.225.5-.5zm0-8c0-.275-.226-.5-.5-.5h-2c-.275 0-.5.225-.5.5v2c0 .275.225.5.5.5h2c.274 0 .5-.225.5-.5zm9 4c0-.275-.226-.5-.5-.5h-7c-.275 0-.5.225-.5.5v2c0 .275.225.5.5.5h7c.274 0 .5-.225.5-.5zm0 4c0-.275-.226-.5-.5-.5h-7c-.275 0-.5.225-.5.5v2c0 .275.225.5.5.5h7c.274 0 .5-.225.5-.5zm0-8c0-.275-.226-.5-.5-.5h-7c-.275 0-.5.225-.5.5v2c0 .275.225.5.5.5h7c.274 0 .5-.225.5-.5z"/><path d="m251 3.5c0-.275-.226-.5-.5-.5h-2c-.275 0-.5.225-.5.5v2c0 .275.225.5.5.5h2c.274 0 .5-.225.5-.5zm0 4c0-.275-.226-.5-.5-.5h-2c-.275 0-.5.225-.5.5v2c0 .275.225.5.5.5h2c.274 0 .5-.225.5-.5zm0 4c0-.275-.226-.5-.5-.5h-2c-.275 0-.5.225-.5.5v2c0 .275.225.5.5.5h2c.274 0 .5-.225.5-.5zm-4-8c0-.275-.226-.5-.5-.5h-2c-.275 0-.5.225-.5.5v2c0 .275.225.5.5.5h2c.274 0 .5-.225.5-.5zm0 4c0-.275-.226-.5-.5-.5h-2c-.275 0-.5.225-.5.5v2c0 .275.225.5.5.5h2c.274 0 .5-.225.5-.5zm0 4c0-.275-.226-.5-.5-.5h-2c-.275 0-.5.225-.5.5v2c0 .275.225.5.5.5h2c.274 0 .5-.225.5-.5zm-4-8c0-.275-.226-.5-.5-.5h-2c-.275 0-.5.225-.5.5v2c0 .275.225.5.5.5h2c.274 0 .5-.225.5-.5zm0 4c0-.275-.226-.5-.5-.5h-2c-.275 0-.5.225-.5.5v2c0 .275.225.5.5.5h2c.274 0 .5-.225.5-.5zm0 4c0-.275-.226-.5-.5-.5h-2c-.275 0-.5.225-.5.5v2c0 .275.225.5.5.5h2c.274 0 .5-.225.5-.5z"/><path d="m227 3.5c0-.275-.226-.5-.5-.5h-4c-.275 0-.5.225-.5.5v4c0 .275.225.5.5.5h4c.274 0 .5-.225.5-.5zm0 6c0-.275-.226-.5-.5-.5h-4c-.275 0-.5.225-.5.5v4c0 .275.225.5.5.5h4c.274 0 .5-.225.5-.5zm-6-6c0-.275-.226-.5-.5-.5h-4c-.275 0-.5.225-.5.5v4c0 .275.225.5.5.5h4c.274 0 .5-.225.5-.5zm0 6c0-.275-.226-.5-.5-.5h-4c-.275 0-.5.225-.5.5v4c0 .275.225.5.5.5h4c.274 0 .5-.225.5-.5z"/><path d="m192 3v11h12v-11zm2 10h-1v-1h1zm0-2h-1v-1h1zm0-2h-1v-1h1zm0-2h-1v-1h1zm0-2h-1v-1h1zm7 8h-6v-4h6zm0-5h-6v-4h6zm2 5h-1v-1h1zm0-2h-1v-1h1zm0-2h-1v-1h1zm0-2h-1v-1h1zm0-2h-1v-1h1z"/><path d="m195 4h6v4h-6z" opacity=".3"/><path d="m195 9h6v4h-6z" opacity=".3"/><path d="m176 10v-1c.55 0 1-1.45 1-2v-2c0-1.65-1.351-3-3-3-1.65 0-3 1.35-3 3v2c0 .55.45 2 1 2v1l-4 2.574v1.426h12c0-.145 0-1.426 0-1.426z"/><path d="m155.734 6h-4.719l-1.461-4h-.016l-1.471 4h-4.788l3.88 2.803-1.457 4.478-.017.015 3.84-2.777 3.841 2.753-1.455-4.489zm-6.209 3.285-1.923 1.391.734-2.257-1.963-1.419h2.395l.777-2.114.771 2.114h2.345l-1.924 1.399.741 2.286z"/><path d="m131.734 6-3.821 2.781 1.455 4.489-3.841-2.753-3.84 2.777.017-.015 1.457-4.478-3.88-2.801h4.788l1.471-4h.016l1.461 4z"/><path d="m102.495 4.511c-1.859-2.847-5.5-.979-5.5 1.646 0 2.023 3.165 3.768 5.5 6.96 2.334-3.192 5.499-4.937 5.499-6.96 0-2.627-3.524-4.493-5.499-1.646z"/><path d="m78 9.031-6-6.031h12zm0 1.969-2-2-4 4h12l-4-4zm3-3 3 3v-6zm-9-3v6l3-3z"/><path d="m60.131 12.684-2.997-2.996c.487-.757.774-1.653.774-2.615 0-2.67-2.172-4.841-4.841-4.841s-4.84 2.171-4.84 4.841c0 2.668 2.171 4.838 4.84 4.838.963 0 1.86-.286 2.616-.773l2.996 2.996c.1.1.264.1.363 0l1.087-1.087c.102-.1.102-.264.002-.363zm-10.365-5.612c0-1.822 1.482-3.304 3.303-3.304s3.303 1.481 3.303 3.304c0 1.82-1.48 3.302-3.303 3.302-1.821 0-3.303-1.481-3.303-3.302z"/><path d="m35 2.192v8.808s-.64 1.301-1.527 1.589c-1.053.341-2.098.026-2.335-.704-.236-.729.425-1.598 1.479-1.939.489-.159.978-.174 1.384-.073v-5.21l-6 1.551v6.06c0 .539-.64 1.301-1.527 1.589-1.053.341-2.098.026-2.335-.704-.236-.729.425-1.598 1.479-1.939.489-.159.978-.174 1.384-.073v-6.89c0-.139.107-.28.241-.316l7.518-1.931c.131-.038.239.045.239.182z"/><path d="m7 7.5 5-5.5h-12l5 5.5v5.5h-3v1h8v-1h-3z"/></g></svg>